<svg width="1440" height="900" viewBox="0 0 1440 900" fill="none" xmlns="http://www.w3.org/2000/svg">
  <defs>
    <radialGradient id="gamiOrange" cx="0" cy="0" r="1" gradientUnits="userSpaceOnUse" gradientTransform="translate(966 266) rotate(90) scale(190 238)">
      <stop stop-color="#F97316" stop-opacity="0.3"/>
      <stop offset="1" stop-color="#F97316" stop-opacity="0"/>
    </radialGradient>
    <radialGradient id="gamiViolet" cx="0" cy="0" r="1" gradientUnits="userSpaceOnUse" gradientTransform="translate(1182 514) rotate(90) scale(178 220)">
      <stop stop-color="#8B5CF6" stop-opacity="0.28"/>
      <stop offset="1" stop-color="#8B5CF6" stop-opacity="0"/>
    </radialGradient>
    <linearGradient id="gamiTrail" x1="388" y1="638" x2="1106" y2="288" gradientUnits="userSpaceOnUse">
      <stop stop-color="#FDBA74" stop-opacity="0.3"/>
      <stop offset="1" stop-color="#C4B5FD" stop-opacity="0.5"/>
    </linearGradient>
  </defs>

  <circle cx="966" cy="266" r="190" fill="url(#gamiOrange)"/>
  <circle cx="1182" cy="514" r="178" fill="url(#gamiViolet)"/>

  <circle cx="1012" cy="390" r="118" stroke="#F97316" stroke-opacity="0.28" stroke-width="8"/>
  <circle cx="1012" cy="390" r="72" stroke="#FDBA74" stroke-opacity="0.34" stroke-width="6"/>
  <circle cx="1012" cy="390" r="24" fill="#FDBA74" fill-opacity="0.48"/>

  <path d="M432 650C526 576 620 486 760 446C866 416 964 418 1106 288" stroke="url(#gamiTrail)" stroke-width="6" stroke-linecap="round" stroke-dasharray="4 18" opacity="0.72"/>

  <g opacity="0.78">
    <circle cx="432" cy="650" r="10" fill="#FDBA74"/>
    <circle cx="760" cy="446" r="10" fill="#F97316"/>
    <circle cx="1106" cy="288" r="12" fill="#A78BFA"/>
  </g>

  <path d="M612 296L638 348H694L648 378L668 430L612 398L556 430L576 378L530 348H586L612 296Z" stroke="#F8FAFC" stroke-opacity="0.34" stroke-width="5" stroke-linejoin="round"/>
  <path d="M836 560L866 516H922L892 560L922 606H866L836 560Z" stroke="#A78BFA" stroke-opacity="0.46" stroke-width="5" stroke-linejoin="round"/>

  <g opacity="0.54">
    <path d="M706 194H766V226C766 252 744 274 718 274H706V194Z" stroke="#F8FAFC" stroke-opacity="0.34" stroke-width="5"/>
    <path d="M706 194H666V226C666 252 688 274 714 274H706V194Z" stroke="#F8FAFC" stroke-opacity="0.34" stroke-width="5"/>
    <path d="M714 274V340" stroke="#F8FAFC" stroke-opacity="0.3" stroke-width="5"/>
    <path d="M682 340H746" stroke="#F8FAFC" stroke-opacity="0.3" stroke-width="5" stroke-linecap="round"/>
  </g>

  <g opacity="0.5">
    <circle cx="1198" cy="640" r="34" stroke="#F97316" stroke-opacity="0.58" stroke-width="4"/>
    <circle cx="1198" cy="640" r="18" stroke="#F97316" stroke-opacity="0.42" stroke-width="4"/>
    <circle cx="1198" cy="640" r="7" fill="#FDBA74"/>
    <circle cx="512" cy="480" r="26" stroke="#A78BFA" stroke-opacity="0.48" stroke-width="4"/>
    <path d="M498 480H526" stroke="#A78BFA" stroke-opacity="0.48" stroke-width="4" stroke-linecap="round"/>
    <path d="M512 466V494" stroke="#A78BFA" stroke-opacity="0.48" stroke-width="4" stroke-linecap="round"/>
  </g>
</svg>
