<svg xmlns="http://www.w3.org/2000/svg" viewBox="0 0 160 32" fill="none" role="img" aria-label="Hapvida">
  <g fill="currentColor">
    <circle cx="14" cy="16" r="3.2"/>
    <ellipse cx="14" cy="10" rx="2.2" ry="4.2"/>
    <ellipse cx="14" cy="22" rx="2.2" ry="4.2"/>
    <ellipse cx="8.5" cy="13" rx="4.2" ry="2.2" transform="rotate(-35 8.5 13)"/>
    <ellipse cx="19.5" cy="13" rx="4.2" ry="2.2" transform="rotate(35 19.5 13)"/>
    <ellipse cx="8.5" cy="19" rx="4.2" ry="2.2" transform="rotate(35 8.5 19)"/>
    <ellipse cx="19.5" cy="19" rx="4.2" ry="2.2" transform="rotate(-35 19.5 19)"/>
    <path d="M38 23V9h6.2c4.8 0 7.6 2.1 7.6 6.4 0 4.1-2.8 7.6-8.1 7.6H38zm4.2-3.4h1.8c2.9 0 4.4-1.5 4.4-4.2 0-2.4-1.4-3.6-4.1-3.6h-2.1v7.8zM58.6 23l1.1-3.2h6.9l1.1 3.2h4.5L63.7 9h-4.9L54 23h4.6zm3.4-10.2 2.4 7h-4.8l2.4-7zM76.8 23V9h4.2v14h-4.2zM88.4 23.4c-4.8 0-7.8-2.8-7.8-7.4S83.6 8.6 88.4 8.6s7.8 2.8 7.8 7.4-3 7.4-7.8 7.4zm0-3.4c2.6 0 3.6-1.8 3.6-4 0-2.3-1-4-3.6-4s-3.6 1.7-3.6 4c0 2.2 1 4 3.6 4zM104.2 23V9h6c4.5 0 6.8 2 6.8 5.5 0 2.5-1.2 4.3-3.4 5.1L118 23h-4.8l-3.8-5.8h-1.4V23h-4.2zm4.2-9.2h1.5c1.8 0 2.7-.8 2.7-2.2 0-1.5-.9-2.2-2.8-2.2h-1.4v4.4zM122.8 23V9h4.2v14h-4.2zM134.4 23.4c-4.8 0-7.8-2.8-7.8-7.4s3-7.4 7.8-7.4 7.8 2.8 7.8 7.4-3 7.4-7.8 7.4zm0-3.4c2.6 0 3.6-1.8 3.6-4 0-2.3-1-4-3.6-4s-3.6 1.7-3.6 4c0 2.2 1 4 3.6 4z"/>
  </g>
</svg>
