<svg width="121" height="23" viewBox="0 0 121 23" fill="none" xmlns="http://www.w3.org/2000/svg">
<g clip-path="url(#clip0_10799_71)">
<path d="M54.9 0.5H40.8V17.4H47.1V12.3H55C60.4 12.3 62 9.9 62 6.4C62 2.9 60.4 0.5 55 0.5H54.9ZM55.6 6.5C55.6 8.3 55 8.8 53 8.8H47.1V4H53C55 4 55.6 4.5 55.6 6.2V6.4V6.5Z" fill="#10AFFF"/>
<path d="M87.6 13.4C83.9 12.9 81.7 11.1 79.1 10.4C83.2 10 85.2 8.70002 85.2 5.30002C85.2 1.90002 83.1 0.400024 76.9 0.400024H63.9V17.3H70.2V12.4H71.2C73.9 12.4 75.2 13 78.1 14.7C81.8 16.8 84.4 17.7 88.2 17.7C90.1 17.7 92.2 17.4 93.6 16.6V0.500024H87.6V13.5V13.4ZM78.9 6.70002C78.9 7.80002 78.4 8.50002 76.6 8.50002H70.3V4.20002H76.6C78.4 4.20002 78.9 4.90002 78.9 6.00002V6.70002Z" fill="#10AFFF"/>
<path d="M108.3 0C99.9 0 95.9 3.2 95.9 8.8C95.9 14.4 99.9 17.8 108.3 17.8C116.7 17.8 120.7 14.5 120.7 8.8C120.7 3.1 116.7 0 108.3 0ZM114.3 9.3C114.3 12.4 112.9 13.7 109.1 13.7H107.4C103.6 13.7 102.2 12.4 102.2 9.3V8.3C102.2 5.2 103.6 4 107.4 4H109.1C112.9 4 114.3 5.2 114.3 8.3V9.3Z" fill="#10AFFF"/>
<path d="M34.6 9.90002C30.8 7.50002 26.7 6.60002 23.3 6.40002C23.3 4.30002 23.3 2.40002 23.3 1.30002C23.3 0.800024 22.9 0.400024 22.4 0.400024C20.4 0.400024 15.3 0.400024 12.6 0.400024C11.5 0.400024 10.3 0.400024 9.19998 0.800024C8.09998 1.10002 7.19998 1.60002 6.79998 2.70002C6.19998 4.20002 6.59998 6.00002 7.59998 6.90002C8.59998 7.80002 9.89998 7.90002 11.2 8.10002C9.49998 8.80002 7.99998 9.50003 6.39998 10.1C5.89998 10.3 4.59998 10.6 3.69998 10.7C2.49998 10.7 0.899976 10.4 0.199976 10.1C-0.500024 9.80003 -2.42889e-05 10.3 -2.42889e-05 10.4V13C-2.42889e-05 13.1 -2.43038e-05 13.2 0.199976 13.3C0.699976 13.5 1.99998 13.9 2.99998 14C7.89998 14.3 10.2 12.7 14.3 10.6C14.8 10.3 15.4 10.1 16 10C15.1 13.5 12.5 16.9 9.29998 19.2C6.09998 21.5 9.19998 19.5 9.29998 19.6C10.1 20.2 11 20.7 11.9 21.2C12.8 21.7 12.2 21.2 12.3 21.2C16 18.2 18.5 14.3 19.5 10.2C20.8 11.7 22.7 13.9 22.9 16.2C23.1 18.7 22.6 20.9 21.9 22.9C21.9 23.1 21.9 23.2 22.1 23.2C22.8 23.2 24.2 23.1 25.1 22.9C26 22.7 25.3 22.8 25.4 22.7C26.1 20.8 26.7 18.6 26.5 16.2C26.3 13.9 25.6 12.3 23.3 10C26.1 10.2 29.6 11 32.7 12.9C35.8 14.8 33 12.9 33.1 12.9L34.7 10.5C34.7 10.4 34.7 10.2 34.7 10.2L34.6 9.90002ZM20.7 2.40002C21.3 2.40002 21.9 2.90002 21.8 3.50002C21.6 4.80002 19.7 4.60002 19.8 3.30002C19.8 2.80002 20.2 2.50002 20.7 2.40002Z" fill="#10AFFF"/>
</g>
<defs>
<clipPath id="clip0_10799_71">
<rect width="120.7" height="23" fill="white"/>
</clipPath>
</defs>
</svg>
