<svg width="1600" height="1000" viewBox="0 0 1600 1000" fill="none" xmlns="http://www.w3.org/2000/svg">
<rect width="1600" height="1000" rx="48" fill="#08111D"/>
<rect x="72" y="72" width="1456" height="856" rx="40" fill="#0D1826" stroke="#1E3A5F" stroke-width="2"/>
<rect x="116" y="128" width="248" height="22" rx="11" fill="#FF7A00" fill-opacity="0.26"/>
<rect x="116" y="172" width="644" height="64" rx="24" fill="#0F2740"/>
<g opacity="0.98">
<rect x="116" y="302" width="1368" height="500" rx="32" fill="#0D1B2A" stroke="#24415E"/>
<path d="M256 610H1344" stroke="#1E3A5F" stroke-width="8" stroke-linecap="round"/>
<path d="M374 458H1228" stroke="#1E3A5F" stroke-width="8" stroke-linecap="round"/>
<rect x="188" y="384" width="132" height="132" rx="28" fill="#11263C" stroke="#2C4F73"/>
<rect x="188" y="550" width="132" height="132" rx="28" fill="#11263C" stroke="#2C4F73"/>
<rect x="520" y="384" width="132" height="132" rx="28" fill="#11263C" stroke="#2C4F73"/>
<rect x="520" y="550" width="132" height="132" rx="28" fill="#11263C" stroke="#2C4F73"/>
<rect x="852" y="384" width="132" height="132" rx="28" fill="#11263C" stroke="#2C4F73"/>
<rect x="852" y="550" width="132" height="132" rx="28" fill="#11263C" stroke="#2C4F73"/>
<rect x="1184" y="384" width="132" height="132" rx="28" fill="#11263C" stroke="#2C4F73"/>
<rect x="1184" y="550" width="132" height="132" rx="28" fill="#11263C" stroke="#2C4F73"/>
<circle cx="254" cy="450" r="26" fill="#22D3EE" fill-opacity="0.3"/>
<circle cx="586" cy="450" r="26" fill="#FF7A00" fill-opacity="0.3"/>
<circle cx="918" cy="450" r="26" fill="#A855F7" fill-opacity="0.3"/>
<circle cx="1250" cy="450" r="26" fill="#10B981" fill-opacity="0.3"/>
<circle cx="254" cy="616" r="26" fill="#FACC15" fill-opacity="0.3"/>
<circle cx="586" cy="616" r="26" fill="#60A5FA" fill-opacity="0.3"/>
<circle cx="918" cy="616" r="26" fill="#FB7185" fill-opacity="0.3"/>
<circle cx="1250" cy="616" r="26" fill="#34D399" fill-opacity="0.3"/>
</g>
</svg>
