<svg width="1280" height="920" viewBox="0 0 1280 920" fill="none" xmlns="http://www.w3.org/2000/svg">
  <rect width="1280" height="920" rx="40" fill="#09111B"/>
  <rect x="32" y="32" width="1216" height="856" rx="32" fill="#0F1827" stroke="#FFFFFF" stroke-opacity="0.08"/>
  <rect x="72" y="96" width="520" height="728" rx="32" fill="#111D30"/>
  <rect x="116" y="144" width="164" height="16" rx="8" fill="#F97316"/>
  <rect x="116" y="176" width="126" height="12" rx="6" fill="#FFFFFF" fill-opacity="0.24"/>
  <rect x="116" y="240" width="432" height="176" rx="28" fill="#17243B"/>
  <rect x="148" y="276" width="182" height="16" rx="8" fill="#FFFFFF" fill-opacity="0.9"/>
  <rect x="148" y="312" width="236" height="12" rx="6" fill="#FFFFFF" fill-opacity="0.24"/>
  <rect x="116" y="456" width="432" height="148" rx="28" fill="#17243B"/>
  <rect x="148" y="492" width="90" height="90" rx="24" fill="#F97316" fill-opacity="0.18"/>
  <rect x="268" y="506" width="116" height="12" rx="6" fill="#FFFFFF" fill-opacity="0.84"/>
  <rect x="268" y="538" width="160" height="12" rx="6" fill="#FFFFFF" fill-opacity="0.24"/>
  <rect x="116" y="644" width="432" height="132" rx="28" fill="#17243B"/>
  <rect x="148" y="680" width="126" height="14" rx="7" fill="#FFFFFF" fill-opacity="0.84"/>
  <rect x="148" y="716" width="252" height="12" rx="6" fill="#FFFFFF" fill-opacity="0.24"/>
  <rect x="628" y="96" width="580" height="728" rx="32" fill="#111D30"/>
  <circle cx="918" cy="346" r="192" fill="#F97316" fill-opacity="0.08"/>
  <circle cx="918" cy="346" r="128" fill="#17243B"/>
  <circle cx="918" cy="346" r="76" fill="#F97316" fill-opacity="0.2"/>
  <rect x="780" y="548" width="276" height="142" rx="28" fill="#17243B"/>
  <rect x="812" y="582" width="128" height="14" rx="7" fill="#FFFFFF" fill-opacity="0.84"/>
  <rect x="812" y="618" width="172" height="12" rx="6" fill="#FFFFFF" fill-opacity="0.24"/>
</svg>
