<svg width="800" height="600" viewBox="0 0 800 600" fill="none" xmlns="http://www.w3.org/2000/svg">
  <rect width="800" height="600" rx="36" fill="#0D1424"/>
  <rect x="72" y="110" width="240" height="90" rx="24" fill="#141B2D"/>
  <rect x="488" y="396" width="240" height="90" rx="24" fill="#1A233A"/>
  <rect x="112" y="138" width="48" height="48" rx="14" fill="#FBBF24"/>
  <rect x="182" y="148" width="88" height="14" rx="7" fill="#FFFFFF"/>
  <rect x="182" y="170" width="62" height="10" rx="5" fill="#FBBF24"/>
  <rect x="528" y="424" width="48" height="48" rx="14" fill="#F97316"/>
  <rect x="598" y="434" width="96" height="14" rx="7" fill="#FFFFFF"/>
  <rect x="598" y="456" width="82" height="10" rx="5" fill="#F97316"/>
  <path d="M312 156C412 156 398 276 488 276" stroke="#FBBF24" stroke-opacity="0.45" stroke-width="10" stroke-dasharray="14 14"/>
  <path d="M488 276C594 276 566 442 488 442" stroke="#F97316" stroke-opacity="0.45" stroke-width="10" stroke-dasharray="14 14"/>
  <circle cx="420" cy="222" r="14" fill="#FFFFFF"/>
  <circle cx="522" cy="360" r="14" fill="#F97316"/>
</svg>
