<svg width="900" height="1125" viewBox="0 0 900 1125" fill="none" xmlns="http://www.w3.org/2000/svg">
  <rect width="900" height="1125" rx="48" fill="#0D1424"/>
  <rect x="40" y="40" width="820" height="120" rx="28" fill="#13233A"/>
  <rect x="72" y="76" width="84" height="48" rx="24" fill="#1D4ED8"/>
  <rect x="686" y="76" width="142" height="24" rx="12" fill="#2B3D56"/>
  <rect x="686" y="110" width="102" height="18" rx="9" fill="#2B3D56"/>
  <rect x="40" y="196" width="820" height="232" rx="36" fill="#12253D"/>
  <rect x="76" y="236" width="220" height="22" rx="11" fill="#8FD3FF"/>
  <rect x="76" y="286" width="744" height="88" rx="24" fill="#0E1C2E"/>
  <path d="M110 355C182 311 244 320 318 262C386 209 492 182 602 221C681 249 749 311 810 267" stroke="#38BDF8" stroke-width="18" stroke-linecap="round"/>
  <circle cx="318" cy="262" r="18" fill="#F97316"/>
  <circle cx="602" cy="221" r="18" fill="#22D3EE"/>
  <rect x="40" y="468" width="390" height="300" rx="36" fill="#13233A"/>
  <rect x="470" y="468" width="390" height="300" rx="36" fill="#13233A"/>
  <rect x="76" y="510" width="180" height="18" rx="9" fill="#8FD3FF"/>
  <rect x="506" y="510" width="188" height="18" rx="9" fill="#8FD3FF"/>
  <rect x="76" y="560" width="318" height="156" rx="28" fill="#0E1C2E"/>
  <rect x="506" y="560" width="318" height="156" rx="28" fill="#0E1C2E"/>
  <rect x="40" y="808" width="244" height="168" rx="32" fill="#13233A"/>
  <rect x="316" y="808" width="244" height="168" rx="32" fill="#13233A"/>
  <rect x="592" y="808" width="268" height="168" rx="32" fill="#13233A"/>
  <rect x="72" y="848" width="126" height="16" rx="8" fill="#8FD3FF"/>
  <rect x="348" y="848" width="126" height="16" rx="8" fill="#8FD3FF"/>
  <rect x="624" y="848" width="126" height="16" rx="8" fill="#8FD3FF"/>
  <rect x="72" y="892" width="160" height="12" rx="6" fill="#24415F"/>
  <rect x="348" y="892" width="160" height="12" rx="6" fill="#24415F"/>
  <rect x="624" y="892" width="160" height="12" rx="6" fill="#24415F"/>
</svg>
