<svg width="1440" height="720" viewBox="0 0 1440 720" fill="none" xmlns="http://www.w3.org/2000/svg">
  <rect width="1440" height="720" rx="40" fill="#09121F"/>
  <rect x="36" y="36" width="1368" height="648" rx="32" fill="#0D1828" stroke="#FFFFFF" stroke-opacity="0.08"/>
  <rect x="72" y="96" width="342" height="528" rx="28" fill="#111E30"/>
  <rect x="112" y="136" width="174" height="16" rx="8" fill="#FFFFFF" fill-opacity="0.88"/>
  <rect x="112" y="168" width="120" height="12" rx="6" fill="#FFFFFF" fill-opacity="0.28"/>
  <rect x="112" y="228" width="262" height="94" rx="24" fill="#FFFFFF" fill-opacity="0.05"/>
  <rect x="136" y="252" width="78" height="18" rx="9" fill="#F97316"/>
  <rect x="136" y="286" width="202" height="12" rx="6" fill="#FFFFFF" fill-opacity="0.2"/>
  <rect x="112" y="348" width="262" height="94" rx="24" fill="#FFFFFF" fill-opacity="0.05"/>
  <rect x="136" y="372" width="92" height="18" rx="9" fill="#38BDF8"/>
  <rect x="136" y="406" width="190" height="12" rx="6" fill="#FFFFFF" fill-opacity="0.2"/>
  <rect x="112" y="468" width="262" height="94" rx="24" fill="#FFFFFF" fill-opacity="0.05"/>
  <rect x="136" y="492" width="104" height="18" rx="9" fill="#34D399"/>
  <rect x="136" y="526" width="180" height="12" rx="6" fill="#FFFFFF" fill-opacity="0.2"/>
  <rect x="456" y="96" width="912" height="240" rx="28" fill="#111E30"/>
  <path d="M520 264C588 220 648 214 704 230C762 246 820 292 890 286C960 280 1012 228 1080 214C1160 198 1236 226 1304 266" stroke="#F97316" stroke-width="10" stroke-linecap="round"/>
  <circle cx="704" cy="230" r="14" fill="#F97316"/>
  <circle cx="890" cy="286" r="14" fill="#F97316"/>
  <circle cx="1080" cy="214" r="14" fill="#F97316"/>
  <rect x="520" y="132" width="184" height="16" rx="8" fill="#FFFFFF" fill-opacity="0.9"/>
  <rect x="520" y="164" width="132" height="12" rx="6" fill="#FFFFFF" fill-opacity="0.22"/>
  <rect x="456" y="376" width="912" height="248" rx="28" fill="#111E30"/>
  <rect x="516" y="436" width="218" height="132" rx="24" fill="#17263D"/>
  <rect x="550" y="470" width="54" height="54" rx="14" fill="#F97316" fill-opacity="0.18"/>
  <rect x="624" y="478" width="78" height="12" rx="6" fill="#FFFFFF" fill-opacity="0.8"/>
  <rect x="624" y="506" width="62" height="12" rx="6" fill="#FFFFFF" fill-opacity="0.24"/>
  <rect x="804" y="436" width="218" height="132" rx="24" fill="#17263D"/>
  <rect x="838" y="470" width="54" height="54" rx="14" fill="#38BDF8" fill-opacity="0.18"/>
  <rect x="912" y="478" width="76" height="12" rx="6" fill="#FFFFFF" fill-opacity="0.8"/>
  <rect x="912" y="506" width="66" height="12" rx="6" fill="#FFFFFF" fill-opacity="0.24"/>
  <rect x="1092" y="436" width="218" height="132" rx="24" fill="#17263D"/>
  <rect x="1126" y="470" width="54" height="54" rx="14" fill="#34D399" fill-opacity="0.18"/>
  <rect x="1200" y="478" width="78" height="12" rx="6" fill="#FFFFFF" fill-opacity="0.8"/>
  <rect x="1200" y="506" width="60" height="12" rx="6" fill="#FFFFFF" fill-opacity="0.24"/>
</svg>
