<svg width="1200" height="900" viewBox="0 0 1200 900" fill="none" xmlns="http://www.w3.org/2000/svg">
  <rect width="1200" height="900" rx="40" fill="#0A1220"/>
  <rect x="28" y="28" width="1144" height="844" rx="32" fill="#0F1827" stroke="#FFFFFF" stroke-opacity="0.08"/>
  <rect x="76" y="96" width="360" height="708" rx="28" fill="#121E30"/>
  <rect x="116" y="136" width="188" height="16" rx="8" fill="#FFFFFF" fill-opacity="0.88"/>
  <rect x="116" y="168" width="120" height="12" rx="6" fill="#FFFFFF" fill-opacity="0.24"/>
  <rect x="116" y="240" width="280" height="160" rx="28" fill="#17243B"/>
  <path d="M256 278L328 310V362C328 420 286 468 256 484C226 468 184 420 184 362V310L256 278Z" fill="#3B82F6" fill-opacity="0.22" stroke="#60A5FA" stroke-width="4"/>
  <path d="M256 334C269.255 334 280 344.745 280 358C280 367.85 274.06 376.313 265.568 380.024V401H246.432V380.024C237.94 376.313 232 367.85 232 358C232 344.745 242.745 334 256 334Z" fill="#DBEAFE"/>
  <rect x="116" y="436" width="280" height="140" rx="24" fill="#17243B"/>
  <rect x="144" y="470" width="96" height="12" rx="6" fill="#FFFFFF" fill-opacity="0.72"/>
  <rect x="144" y="502" width="172" height="12" rx="6" fill="#FFFFFF" fill-opacity="0.22"/>
  <rect x="144" y="534" width="140" height="12" rx="6" fill="#FFFFFF" fill-opacity="0.22"/>
  <rect x="476" y="96" width="648" height="220" rx="28" fill="#121E30"/>
  <rect x="520" y="136" width="220" height="16" rx="8" fill="#FFFFFF"/>
  <rect x="520" y="168" width="154" height="12" rx="6" fill="#FFFFFF" fill-opacity="0.24"/>
  <rect x="520" y="224" width="252" height="56" rx="20" fill="#3B82F6" fill-opacity="0.14" stroke="#60A5FA" stroke-opacity="0.35"/>
  <rect x="804" y="224" width="280" height="56" rx="20" fill="#FFFFFF" fill-opacity="0.05"/>
  <rect x="476" y="356" width="648" height="448" rx="28" fill="#121E30"/>
  <rect x="520" y="408" width="252" height="156" rx="24" fill="#17243B"/>
  <rect x="548" y="438" width="72" height="72" rx="18" fill="#3B82F6" fill-opacity="0.18"/>
  <rect x="644" y="452" width="86" height="12" rx="6" fill="#FFFFFF" fill-opacity="0.84"/>
  <rect x="644" y="482" width="94" height="12" rx="6" fill="#FFFFFF" fill-opacity="0.24"/>
  <rect x="644" y="512" width="78" height="12" rx="6" fill="#FFFFFF" fill-opacity="0.24"/>
  <rect x="828" y="408" width="252" height="156" rx="24" fill="#17243B"/>
  <rect x="856" y="438" width="72" height="72" rx="18" fill="#38BDF8" fill-opacity="0.18"/>
  <rect x="952" y="452" width="82" height="12" rx="6" fill="#FFFFFF" fill-opacity="0.84"/>
  <rect x="952" y="482" width="88" height="12" rx="6" fill="#FFFFFF" fill-opacity="0.24"/>
  <rect x="952" y="512" width="70" height="12" rx="6" fill="#FFFFFF" fill-opacity="0.24"/>
  <rect x="520" y="604" width="560" height="132" rx="24" fill="#17243B"/>
  <path d="M564 670H836" stroke="#FFFFFF" stroke-opacity="0.16" stroke-width="10" stroke-linecap="round"/>
  <circle cx="912" cy="670" r="32" fill="#34D399" fill-opacity="0.24"/>
  <path d="M897 670L907 680L928 659" stroke="#D1FAE5" stroke-width="8" stroke-linecap="round" stroke-linejoin="round"/>
</svg>
