<svg xmlns="http://www.w3.org/2000/svg" viewBox="0 0 500 72" fill="none" role="img" aria-label="Contabilizei">
  <path fill="currentColor" d="m461.17 31.899h-6.4167c-0.1667-0.81194-0.3333-1.7053-0.4167-2.5986-0.1666-0.89334-0.1666-1.7867-0.1666-2.5988 0-1.7054 0.1666-3.3296 0.5833-4.9539h19.833v48.483c-2.3333 0.40611-4.5833 0.56861-6.75 0.56861-2.0833 0-4.3333-0.1625-6.6666-0.56861zm-2-18.272c-0.4167-2.1115-0.5834-4.223-0.5834-6.2532 0-2.0303 0.1667-4.0606 0.5834-6.2532 1.0833-0.16242 2.25-0.32485 3.5-0.40606 1.25-0.16242 2.4166-0.24363 3.4166-0.24363 1.0834 0 2.25 0.0812 3.5834 0.16242 1.25 0.0812 2.5 0.24363 3.5833 0.40606 0.1667 1.0557 0.3333 2.1115 0.4167 3.1672 0.083 1.0557 0.083 2.1115 0.083 3.1672 0 0.97453 0 2.0303-0.083 3.086-0.083 1.0557-0.1667 2.1115-0.4167 3.1672-1.0833 0.16242-2.25 0.32484-3.5 0.40606-1.25 0.0812-2.4167 0.0812-3.5 0.0812-1 0-2.1667 0-3.5-0.0812-1.3333-0.16242-2.5-0.24364-3.5833-0.40606zm-40.253 36.464c0.25 3.7356 1.5833 6.4969 4 8.1211 2.4167 1.7053 5.6667 2.5175 9.5833 2.5175 2.1667 0 4.4167-0.1625 6.6667-0.64972 2.25-0.40611 4.4167-0.97445 6.5-1.7053 0.6667 1.2181 1.3333 2.7611 1.8333 4.4664 0.5 1.7867 0.8334 3.6544 0.8334 5.6036-5 1.8678-10.667 2.8425-16.917 2.8425-4.5833 0-8.5833-0.64972-11.917-1.8681-3.3333-1.218-6-3.0047-8.0833-5.1975-2.0833-2.1925-3.5833-4.8725-4.5833-7.9586-1-3.0861-1.5-6.4156-1.5-10.07 0-3.5733 0.5-6.903 1.5-10.07 1-3.0861 2.5833-5.8472 4.5833-8.1211 2-2.2739 4.5-4.1418 7.5-5.5223 3-1.3806 6.5-2.0303 10.417-2.0303 3.5 0 6.5833 0.56848 9.25 1.7866 2.6666 1.2182 5 2.8424 6.9166 4.8727 1.9167 2.0303 3.3334 4.5478 4.25 7.3903 1 2.8422 1.4167 5.9283 1.4167 9.1767 0 1.2183-0.083 2.3553-0.1667 3.4922-0.083 1.1369-0.1666 2.1114-0.3333 2.7611h-31.75zm19.583-9.3394c-0.1666-3.0047-1-5.3597-2.5833-7.2278-1.5833-1.8678-3.75-2.7611-6.5833-2.7611-3.1667 0-5.6667 0.89333-7.3334 2.5989-1.6666 1.7867-2.6666 4.2228-3 7.39zm-76.917 28.343 22.417-37.113h-19c-0.1666-0.97472-0.3333-1.8681-0.4166-2.68-0.083-0.89334-0.083-1.7867-0.083-2.5988s0-1.6242 0.083-2.3551c0.083-0.81211 0.1666-1.6242 0.4166-2.5176h39.167l0.5 1.137-22.833 37.113h21.167c0.1667 0.97472 0.3334 1.868 0.4167 2.68 0.083 0.89333 0.083 1.7867 0.083 2.5989 0 0.81194 0 1.6242-0.083 2.355-0.083 0.81222-0.1667 1.6242-0.4167 2.5175h-40.583zm-18.997-37.195h-6.4166c-0.16667-0.81194-0.33334-1.7053-0.41667-2.5986-0.0833-0.89334-0.16667-1.7867-0.16667-2.5988 0-1.7054 0.16667-3.3296 0.58334-4.9539h19.833v48.483c-2.3333 0.40611-4.5833 0.56861-6.75 0.56861-2.0833 0-4.3333-0.1625-6.6667-0.56861zm-2-18.272c-0.41666-2.1927-0.58333-4.223-0.58333-6.3345 0-2.0303 0.16667-4.0605 0.58333-6.2532 1.0834-0.16243 2.25-0.32485 3.5-0.40606 1.25-0.0812 2.3334-0.16242 3.4167-0.16242s2.25 0.0812 3.5833 0.16242c1.25 0.0812 2.5 0.24363 3.5834 0.40606 0.1666 1.0557 0.3333 2.1115 0.4166 3.1672 0.083 1.0557 0.083 2.1115 0.083 3.1672 0 0.97453 0 2.0303-0.083 3.086-0.083 1.0557-0.1666 2.1115-0.4166 3.1672-1.0834 0.16242-2.25 0.32484-3.5 0.40606-1.25 0.0812-2.4167 0.0812-3.5 0.0812-1 0-2.1667 0-3.5-0.0812-1.3334-0.16242-2.5-0.24364-3.5834-0.40606z"/>
  <circle cx="490" cy="61.216" r="10.083" fill="currentColor" opacity="0.85"/>
</svg>
