<?xml version="1.0" encoding="UTF-8"?>
<svg id="Camada_1" data-name="Camada 1" xmlns="http://www.w3.org/2000/svg" viewBox="0 0 645.24 196.4">
  <defs>
    <style>
      .cls-1 {
        fill: #fff;
      }

      .cls-2 {
        fill: #8f00ff;
      }
    </style>
  </defs>
  <g>
    <path class="cls-2" d="M2.24,74.7h0c-7.8,18.4,5.7,38.8,25.7,38.8h0c11.9,0,22.6-7.1,27.3-18.1l6.2-14.7c5.9-13.9,19.5-23,34.7-23h85.4c11.4,0,21.8-6.8,26.4-17.3h0c8.4-19.1-5.6-40.4-26.4-40.4h-57.9c-11.4,0-21.7,6.8-26.3,17.2l-14.7,33.2c-1.9,4.3-6.2,7.1-10.9,7.1H28.04c-11.2,0-21.4,6.7-25.7,17.1l-.1.1Z"/>
    <path class="cls-2" d="M67.94,83.6l-33.3,75.2c-7.9,17.7,5.1,37.6,24.5,37.6h0c10.7,0,20.3-6.3,24.6-16.1l22.7-52.2c1.5-3.5,5-5.8,8.8-5.8h26.9c11.3,0,21.6-6.6,26.2-16.9h0c8.6-19.1-5.3-40.7-26.2-40.7h-45c-12.6,0-23.9,7.4-29,18.9h-.2Z"/>
  </g>
  <path class="cls-1" d="M305.34,105.8v61.8h-28.4V30.4h66.6v23.4h-38.2v30.9h35.3v21h-35.3v.1Z"/>
  <path class="cls-1" d="M355.64,167.6V30.4h26.2v137.2h-26.2Z"/>
  <path class="cls-1" d="M446.94,170.3c-30.4,0-51.8-21.6-51.8-49.9s21.4-49.4,51.8-49.4,51.8,21.6,51.8,49.4-21.4,49.9-51.8,49.9ZM446.94,147.1c15.7,0,27.1-11.5,27.1-26.7s-11.3-26.2-27.1-26.2-27.1,11.5-27.1,26.2,11.3,26.7,27.1,26.7Z"/>
  <path class="cls-1" d="M577.04,157.3c0-1.7-2.1-2.5-3.2-1.2-7.5,8.7-18.3,14.2-29.7,14.2-20.7,0-33.1-14.3-33.1-35.9v-60.9h26v59.5c0,11.3,7.7,19.4,20.1,19.4,1.5,0-1.6,0,0,0,10.2,0,19.9-8.4,19.9-18v-60.9h26.2v94h-26.2v-10.3.1Z"/>
  <path class="cls-1" d="M619.04,167.6v-94h26.2v94h-26.2Z"/>
  <path class="cls-1" d="M632.14,30.4h0c7.23,0,13.1,5.87,13.1,13.1v.7c0,7.23-5.86,13.1-13.1,13.1h0c-7.23,0-13.1-5.87-13.1-13.1v-.7c0-7.23,5.86-13.1,13.1-13.1Z"/>
</svg>