<svg width="166" height="50" viewBox="0 0 166 50" fill="none" xmlns="http://www.w3.org/2000/svg">
<g clip-path="url(#clip0_366_1108)">
<path d="M69.3107 15.2168H72.4776L68.3672 29.2337H64.8112L62.1154 18.9459L59.4766 29.2337H55.891L51.6392 15.2168H54.8894L57.7792 25.9516L60.3916 15.2168H63.7811L66.5316 25.8979L69.3107 15.2168Z" fill="white"/>
<path d="M74.1445 22.224C74.1445 17.9623 76.9784 14.9355 80.9508 14.9355C84.9232 14.9355 87.7866 17.9623 87.7866 22.224C87.7866 26.4857 84.9528 29.5113 80.9508 29.5113C76.9488 29.5113 74.1445 26.4846 74.1445 22.224ZM81.0637 26.878C83.1469 26.878 84.5638 25.1674 84.5638 22.224C84.5638 19.2806 83.1469 17.5699 81.0637 17.5699H80.8412C78.7854 17.5699 77.3389 19.2806 77.3389 22.224C77.3389 25.1674 78.7843 26.878 80.8412 26.878H81.0637Z" fill="white"/>
<path d="M90.8714 29.2333V15.2164H94.011V18.1325C94.5666 16.1983 96.0942 15.0762 98.0382 15.0762H98.9818V18.1029H97.7862C95.3699 18.1029 94.0636 19.4771 94.0636 22.0282V29.2333H90.8682H90.8704H90.8714Z" fill="white"/>
<path d="M101.511 29.2315V9.60938H104.706V20.7935L110.206 15.2146H114.233L108.704 20.7935L114.511 29.2326H110.675L106.452 23.0663L104.702 24.8043V29.2326H101.506H101.509L101.511 29.2304V29.2315Z" fill="white"/>
<path d="M126.017 15.2168H129.296L124.35 29.2337H119.988L115.042 15.2168H118.404L122.21 26.5697L126.016 15.2168H126.018H126.017Z" fill="white"/>
<path d="M131.492 13.0854V9.60938H134.964V13.0854H131.492ZM131.631 29.2304V15.2135H134.826V29.2304H131.631Z" fill="white"/>
<path d="M148.16 15.2168H151.439L146.494 29.2337H142.131L137.186 15.2168H140.548L144.353 26.5697L148.159 15.2168H148.161H148.16Z" fill="white"/>
<path d="M152.356 22.224C152.356 17.9623 155.19 14.9355 159.163 14.9355C163.135 14.9355 165.999 17.9623 165.999 22.224C165.999 26.4857 163.165 29.5113 159.163 29.5113C155.161 29.5113 152.356 26.4846 152.356 22.224ZM159.276 26.878C161.359 26.878 162.776 25.1674 162.776 22.224C162.776 19.2806 161.359 17.5699 159.276 17.5699H159.053C156.997 17.5699 155.553 19.2806 155.553 22.224C155.553 25.1674 156.998 26.878 159.053 26.878H159.276Z" fill="white"/>
<path d="M29.9614 23.3721C29.1274 23.7414 28.1521 23.3622 27.7861 22.5184C27.7861 22.5184 27.7861 22.5162 27.7839 22.5151L24.4098 14.7204C24.046 13.8777 24.4252 12.8969 25.2602 12.5276C26.0941 12.1594 27.0672 12.543 27.4333 13.3846L30.8139 21.1793C31.1799 22.022 30.7986 23.0039 29.9625 23.3721H29.9646H29.9614ZM24.2827 29.5833C23.4488 29.9493 22.4768 29.5647 22.113 28.7209L16.0727 14.716C15.71 13.8733 16.0913 12.8947 16.9274 12.5265C17.7614 12.1583 18.7312 12.5441 19.0961 13.3835V13.3868L25.132 27.3916C25.4925 28.2332 25.1134 29.2129 24.2772 29.5811H24.2805L24.2827 29.5833ZM16.831 28.6639C16.671 29.077 16.3576 29.4047 15.9554 29.5811C15.1215 29.9471 14.1495 29.5636 13.7857 28.722V28.7198L10.382 20.8001C10.0182 19.9574 10.4006 18.9767 11.2356 18.6096C12.0696 18.2435 13.0427 18.6282 13.4076 19.472L16.8113 27.3916C16.9877 27.796 16.9932 28.2551 16.8321 28.665H16.8343L16.8321 28.6628L16.831 28.6639ZM7.80238 14.761C7.80238 13.7846 8.58591 12.9912 9.55572 12.9912C10.5255 12.9912 11.3091 13.7824 11.3091 14.761C11.3091 15.7395 10.5234 16.5307 9.55572 16.5307C8.5881 16.5307 7.80238 15.7385 7.80238 14.761ZM34.508 0H4.585C2.05361 0 1.75546e-06 2.06895 1.75546e-06 4.62444V34.8181C-0.00218992 37.3736 2.04813 39.4448 4.58061 39.448H34.5091C37.0416 39.448 39.0941 37.3791 39.0941 34.8236V4.62444C39.0941 2.06895 37.0416 0 34.5113 0H34.508Z" fill="white"/>
<path d="M137.013 47.4006H130.487C130.056 47.4006 129.648 47.1716 129.446 46.7815C129.22 46.3355 129.303 45.7996 129.651 45.449L134.19 40.8727H130.94C130.043 40.8727 129.32 40.1429 129.32 39.2388H135.332C135.762 39.2388 136.171 39.4679 136.373 39.858C136.6 40.304 136.516 40.8398 136.168 41.1905L131.629 45.7667H135.394C136.291 45.7667 137.014 46.4966 137.014 47.4006H137.012H137.013ZM162.838 39.1183C161.904 39.1183 161.062 39.5259 160.488 40.1769C159.908 39.5248 159.066 39.1183 158.137 39.1183C156.402 39.1183 154.986 40.613 154.986 42.3565V47.4006C155.882 47.4006 156.605 46.6708 156.605 45.7667V42.339C156.605 41.4974 157.252 40.7851 158.081 40.75C158.956 40.7149 159.68 41.425 159.68 42.3006V45.7678C159.68 46.6719 160.404 47.4017 161.3 47.4017V42.3401C161.3 41.4984 161.946 40.7862 162.776 40.7511C163.651 40.716 164.375 41.4261 164.375 42.3017V45.7689C164.375 46.673 165.098 47.4028 165.995 47.4028V42.3587C165.989 40.6141 164.572 39.1205 162.836 39.1205V39.1172L162.838 39.1183ZM145.186 43.3208C145.186 45.6396 143.316 47.5234 141.016 47.5234C138.716 47.5234 136.846 45.6396 136.846 43.3208C136.846 41.002 138.721 39.1183 141.016 39.1183C143.311 39.1183 145.186 41.002 145.186 43.3208ZM143.566 43.3208C143.566 41.905 142.421 40.75 141.016 40.75C139.611 40.75 138.466 41.9039 138.466 43.3208C138.466 44.7378 139.611 45.8917 141.016 45.8917C142.421 45.8917 143.566 44.7378 143.566 43.3208ZM154.173 43.3208C154.173 45.6396 152.303 47.5234 150.003 47.5234C147.703 47.5234 145.833 45.6396 145.833 43.3208C145.833 41.002 147.708 39.1183 150.003 39.1183C152.298 39.1183 154.173 41.002 154.173 43.3208ZM152.553 43.3208C152.553 41.905 151.408 40.75 150.005 40.75C148.602 40.75 147.455 41.9039 147.455 43.3208C147.455 44.7378 148.6 45.8917 150.005 45.8917C151.41 45.8917 152.553 44.7378 152.553 43.3208Z" fill="white"/>
<path d="M112.116 43.4271C112.116 43.9159 112.174 44.3411 112.291 44.7016C112.409 45.0534 112.565 45.346 112.76 45.5805C112.956 45.815 113.186 45.9903 113.45 46.1076C113.714 46.215 113.992 46.2687 114.285 46.2687C114.919 46.2687 115.432 46.0199 115.823 45.5213C116.215 45.0128 116.41 44.3148 116.41 43.4261C116.41 42.5373 116.215 41.8437 115.823 41.3451C115.433 40.8464 114.919 40.5977 114.285 40.5977C113.991 40.5977 113.713 40.6569 113.45 40.773C113.186 40.8804 112.957 41.0514 112.76 41.2859C112.565 41.5105 112.409 41.8031 112.291 42.1647C112.174 42.5165 112.116 42.9362 112.116 43.425V43.4271ZM112.174 36.7305V40.6284C112.419 40.2174 112.741 39.9007 113.142 39.6761C113.552 39.4416 114.05 39.3243 114.637 39.3243C115.096 39.3243 115.531 39.4175 115.941 39.6027C116.35 39.7879 116.712 40.0574 117.024 40.4081C117.337 40.7599 117.581 41.1894 117.758 41.6979C117.943 42.2064 118.036 42.7817 118.036 43.4271C118.036 44.0726 117.943 44.6479 117.758 45.1564C117.581 45.6638 117.338 46.0988 117.024 46.4604C116.712 46.8122 116.35 47.0807 115.941 47.2659C115.531 47.4511 115.096 47.5442 114.637 47.5442C114.05 47.5442 113.553 47.4324 113.142 47.2067C112.742 46.9722 112.419 46.65 112.174 46.2402V47.3535H110.65V36.7305H112.174ZM119.012 49.9178V48.7014H119.613C119.818 48.7014 119.994 48.6916 120.14 48.6718C120.297 48.6521 120.434 48.6028 120.55 48.525C120.667 48.4472 120.774 48.3299 120.872 48.1732C120.969 48.0165 121.067 47.7974 121.164 47.5135L121.224 47.3382L118.381 39.4701H120.066L121.971 45.346L123.832 39.4701H125.414L122.63 47.5289C122.463 47.9979 122.302 48.3836 122.146 48.6861C122 48.9885 121.819 49.2329 121.604 49.4192C121.399 49.6044 121.145 49.7315 120.842 49.8006C120.549 49.8784 120.183 49.9178 119.743 49.9178H119.011H119.012Z" fill="white"/>
</g>
<defs>
<clipPath id="clip0_366_1108">
<rect width="166" height="49.9188" fill="white"/>
</clipPath>
</defs>
</svg>
