<svg width="1600" height="1000" viewBox="0 0 1600 1000" fill="none" xmlns="http://www.w3.org/2000/svg">
<rect width="1600" height="1000" rx="48" fill="#07101A"/>
<rect x="68" y="68" width="1464" height="864" rx="40" fill="#0B1623" stroke="#1E3A5F" stroke-width="2"/>
<rect x="118" y="126" width="228" height="22" rx="11" fill="#22D3EE" fill-opacity="0.26"/>
<rect x="118" y="170" width="612" height="62" rx="22" fill="#0F2740"/>
<g opacity="0.98">
<rect x="118" y="304" width="430" height="464" rx="32" fill="#0D1B2A" stroke="#24415E"/>
<circle cx="200" cy="386" r="42" fill="#3B82F6" fill-opacity="0.22"/>
<rect x="260" y="358" width="184" height="18" rx="9" fill="#D9E7F5" fill-opacity="0.22"/>
<rect x="260" y="392" width="106" height="16" rx="8" fill="#22D3EE" fill-opacity="0.28"/>
<rect x="170" y="454" width="310" height="14" rx="7" fill="#D9E7F5" fill-opacity="0.12"/>
<rect x="170" y="486" width="282" height="14" rx="7" fill="#D9E7F5" fill-opacity="0.12"/>
<rect x="170" y="552" width="326" height="44" rx="16" fill="#11263C" stroke="#2C4F73"/>
<rect x="170" y="618" width="326" height="44" rx="16" fill="#11263C" stroke="#2C4F73"/>
<rect x="170" y="684" width="326" height="44" rx="16" fill="#11263C" stroke="#2C4F73"/>
</g>
<g opacity="0.98">
<rect x="586" y="304" width="430" height="464" rx="32" fill="#0D1B2A" stroke="#24415E"/>
<circle cx="668" cy="386" r="42" fill="#FACC15" fill-opacity="0.22"/>
<rect x="728" y="358" width="184" height="18" rx="9" fill="#D9E7F5" fill-opacity="0.22"/>
<rect x="728" y="392" width="136" height="16" rx="8" fill="#FACC15" fill-opacity="0.28"/>
<rect x="638" y="454" width="312" height="14" rx="7" fill="#D9E7F5" fill-opacity="0.12"/>
<rect x="638" y="486" width="286" height="14" rx="7" fill="#D9E7F5" fill-opacity="0.12"/>
<rect x="638" y="552" width="326" height="44" rx="16" fill="#11263C" stroke="#2C4F73"/>
<rect x="638" y="618" width="326" height="44" rx="16" fill="#11263C" stroke="#2C4F73"/>
<rect x="638" y="684" width="326" height="44" rx="16" fill="#11263C" stroke="#2C4F73"/>
</g>
<g opacity="0.98">
<rect x="1054" y="304" width="430" height="464" rx="32" fill="#0D1B2A" stroke="#24415E"/>
<circle cx="1136" cy="386" r="42" fill="#EC4899" fill-opacity="0.22"/>
<rect x="1196" y="358" width="184" height="18" rx="9" fill="#D9E7F5" fill-opacity="0.22"/>
<rect x="1196" y="392" width="168" height="16" rx="8" fill="#EC4899" fill-opacity="0.28"/>
<rect x="1106" y="454" width="308" height="14" rx="7" fill="#D9E7F5" fill-opacity="0.12"/>
<rect x="1106" y="486" width="274" height="14" rx="7" fill="#D9E7F5" fill-opacity="0.12"/>
<rect x="1106" y="552" width="326" height="44" rx="16" fill="#11263C" stroke="#2C4F73"/>
<rect x="1106" y="618" width="326" height="44" rx="16" fill="#11263C" stroke="#2C4F73"/>
<rect x="1106" y="684" width="326" height="44" rx="16" fill="#11263C" stroke="#2C4F73"/>
</g>
</svg>
