<svg width="180" height="72" viewBox="0 0 180 72" fill="none" xmlns="http://www.w3.org/2000/svg">
  <rect width="180" height="72" rx="18" fill="#FFF7ED"/>
  <rect x="18" y="18" width="36" height="36" rx="12" fill="#FBBF24"/>
  <circle cx="36" cy="36" r="8" fill="#FFF7ED"/>
  <path d="M68 24H81.5C89.2 24 94 27.9 94 33.8C94 37.8 91.8 40.5 88.1 41.6C92.8 42.6 95.5 45.8 95.5 50.2C95.5 56.7 90.3 61 82 61H68V24ZM78.5 38.8H80.7C82.9 38.8 84.2 37.9 84.2 36.2C84.2 34.5 82.9 33.6 80.7 33.6H78.5V38.8ZM78.5 51.4H81.3C84 51.4 85.6 50.3 85.6 48.4C85.6 46.4 84 45.4 81.3 45.4H78.5V51.4Z" fill="#7C2D12"/>
  <path d="M100 42.5C100 31.7 108.1 24 118.8 24C129.6 24 137.7 31.7 137.7 42.5C137.7 53.3 129.6 61 118.8 61C108.1 61 100 53.3 100 42.5ZM127.8 42.5C127.8 36.9 124.3 33.5 118.8 33.5C113.4 33.5 109.9 36.9 109.9 42.5C109.9 48.1 113.4 51.5 118.8 51.5C124.3 51.5 127.8 48.1 127.8 42.5Z" fill="#7C2D12"/>
  <path d="M142 24H152V61H142V24Z" fill="#7C2D12"/>
</svg>
