<svg width="1280" height="860" viewBox="0 0 1280 860" fill="none" xmlns="http://www.w3.org/2000/svg">
  <rect width="1280" height="860" rx="40" fill="#0A111C"/>
  <rect x="32" y="32" width="1216" height="796" rx="32" fill="#10192A" stroke="#FFFFFF" stroke-opacity="0.08"/>
  <rect x="72" y="92" width="1136" height="120" rx="28" fill="#111E31"/>
  <rect x="116" y="132" width="220" height="16" rx="8" fill="#FFFFFF" fill-opacity="0.9"/>
  <rect x="116" y="164" width="182" height="12" rx="6" fill="#FFFFFF" fill-opacity="0.24"/>
  <rect x="72" y="260" width="548" height="252" rx="28" fill="#111E31"/>
  <rect x="104" y="296" width="96" height="56" rx="20" fill="#F97316" fill-opacity="0.16"/>
  <rect x="220" y="312" width="118" height="14" rx="7" fill="#FFFFFF" fill-opacity="0.84"/>
  <rect x="220" y="346" width="246" height="12" rx="6" fill="#FFFFFF" fill-opacity="0.24"/>
  <rect x="72" y="544" width="548" height="252" rx="28" fill="#111E31"/>
  <rect x="104" y="580" width="96" height="56" rx="20" fill="#F97316" fill-opacity="0.16"/>
  <rect x="220" y="596" width="132" height="14" rx="7" fill="#FFFFFF" fill-opacity="0.84"/>
  <rect x="220" y="630" width="244" height="12" rx="6" fill="#FFFFFF" fill-opacity="0.24"/>
  <rect x="660" y="260" width="548" height="252" rx="28" fill="#111E31"/>
  <rect x="692" y="296" width="96" height="56" rx="20" fill="#F97316" fill-opacity="0.16"/>
  <rect x="808" y="312" width="124" height="14" rx="7" fill="#FFFFFF" fill-opacity="0.84"/>
  <rect x="808" y="346" width="220" height="12" rx="6" fill="#FFFFFF" fill-opacity="0.24"/>
  <rect x="660" y="544" width="548" height="252" rx="28" fill="#111E31"/>
  <rect x="692" y="580" width="96" height="56" rx="20" fill="#F97316" fill-opacity="0.16"/>
  <rect x="808" y="596" width="146" height="14" rx="7" fill="#FFFFFF" fill-opacity="0.84"/>
  <rect x="808" y="630" width="248" height="12" rx="6" fill="#FFFFFF" fill-opacity="0.24"/>
</svg>
