<svg width="960" height="720" viewBox="0 0 960 720" fill="none" xmlns="http://www.w3.org/2000/svg">
  <rect width="960" height="720" rx="36" fill="#F4F7FB"/>
  <rect x="28" y="28" width="904" height="64" rx="18" fill="#E6EDF6"/>
  <rect x="56" y="48" width="144" height="24" rx="12" fill="#0F172A"/>
  <rect x="724" y="48" width="180" height="24" rx="12" fill="#22C55E"/>
  <rect x="28" y="120" width="904" height="108" rx="28" fill="#FFFFFF"/>
  <rect x="56" y="152" width="184" height="18" rx="9" fill="#8FD3FF"/>
  <rect x="56" y="186" width="112" height="36" rx="18" fill="#F97316"/>
  <rect x="276" y="120" width="656" height="572" rx="28" fill="#FFFFFF"/>
  <rect x="304" y="156" width="192" height="18" rx="9" fill="#0F172A"/>
  <rect x="304" y="206" width="184" height="18" rx="9" fill="#8FD3FF"/>
  <rect x="304" y="254" width="180" height="180" rx="28" fill="#F4F7FB"/>
  <rect x="514" y="254" width="180" height="180" rx="28" fill="#F4F7FB"/>
  <rect x="724" y="254" width="180" height="180" rx="28" fill="#F4F7FB"/>
  <rect x="304" y="468" width="180" height="180" rx="28" fill="#F4F7FB"/>
  <rect x="514" y="468" width="180" height="180" rx="28" fill="#F4F7FB"/>
  <rect x="724" y="468" width="180" height="180" rx="28" fill="#F4F7FB"/>
  <rect x="336" y="286" width="116" height="86" rx="20" fill="#FFFFFF"/>
  <rect x="546" y="286" width="116" height="86" rx="20" fill="#FFFFFF"/>
  <rect x="756" y="286" width="116" height="86" rx="20" fill="#FFFFFF"/>
  <rect x="336" y="500" width="116" height="86" rx="20" fill="#FFFFFF"/>
  <rect x="546" y="500" width="116" height="86" rx="20" fill="#FFFFFF"/>
  <rect x="756" y="500" width="116" height="86" rx="20" fill="#FFFFFF"/>
  <rect x="336" y="390" width="72" height="14" rx="7" fill="#F97316"/>
  <rect x="546" y="390" width="72" height="14" rx="7" fill="#F97316"/>
  <rect x="756" y="390" width="72" height="14" rx="7" fill="#F97316"/>
  <rect x="336" y="604" width="72" height="14" rx="7" fill="#F97316"/>
  <rect x="546" y="604" width="72" height="14" rx="7" fill="#F97316"/>
  <rect x="756" y="604" width="72" height="14" rx="7" fill="#F97316"/>
</svg>
