<svg width="960" height="720" viewBox="0 0 960 720" fill="none" xmlns="http://www.w3.org/2000/svg">
  <rect width="960" height="720" rx="36" fill="#091321"/>
  <rect x="36" y="36" width="888" height="72" rx="20" fill="#122338"/>
  <rect x="60" y="58" width="160" height="28" rx="14" fill="#F97316"/>
  <rect x="744" y="58" width="156" height="28" rx="14" fill="#1E2F45"/>
  <rect x="36" y="144" width="220" height="540" rx="28" fill="#102034"/>
  <rect x="292" y="144" width="632" height="252" rx="28" fill="#12253D"/>
  <rect x="320" y="176" width="256" height="18" rx="9" fill="#8FD3FF"/>
  <rect x="320" y="216" width="576" height="148" rx="24" fill="#0E1C2E"/>
  <path d="M344 316C392 278 430 284 474 246C518 208 578 190 640 214C704 238 742 320 872 248" stroke="#F97316" stroke-width="12" stroke-linecap="round"/>
  <rect x="292" y="432" width="300" height="252" rx="28" fill="#102034"/>
  <rect x="624" y="432" width="300" height="252" rx="28" fill="#102034"/>
  <rect x="72" y="188" width="148" height="18" rx="9" fill="#8FD3FF"/>
  <rect x="72" y="230" width="120" height="16" rx="8" fill="#1F3A58"/>
  <rect x="72" y="278" width="148" height="18" rx="9" fill="#1F3A58"/>
  <rect x="72" y="320" width="132" height="16" rx="8" fill="#1F3A58"/>
  <rect x="72" y="368" width="148" height="18" rx="9" fill="#1F3A58"/>
  <rect x="72" y="410" width="112" height="16" rx="8" fill="#1F3A58"/>
  <rect x="320" y="470" width="180" height="16" rx="8" fill="#8FD3FF"/>
  <rect x="320" y="510" width="244" height="120" rx="20" fill="#0E1C2E"/>
  <rect x="652" y="470" width="180" height="16" rx="8" fill="#8FD3FF"/>
  <rect x="652" y="510" width="244" height="120" rx="20" fill="#0E1C2E"/>
</svg>
