<svg width="960" height="720" viewBox="0 0 960 720" fill="none" xmlns="http://www.w3.org/2000/svg">
  <rect width="960" height="720" rx="36" fill="#091321"/>
  <rect x="36" y="36" width="888" height="72" rx="20" fill="#122338"/>
  <rect x="60" y="58" width="200" height="28" rx="14" fill="#A855F7"/>
  <rect x="280" y="58" width="120" height="28" rx="14" fill="#1E2F45"/>
  <rect x="720" y="58" width="180" height="28" rx="14" fill="#EC4899"/>
  <rect x="36" y="132" width="420" height="280" rx="28" fill="#102034"/>
  <rect x="68" y="176" width="180" height="14" rx="7" fill="#8FD3FF"/>
  <rect x="68" y="210" width="356" height="72" rx="20" fill="#0E1C2E"/>
  <rect x="92" y="234" width="120" height="24" rx="12" fill="#A855F7"/>
  <rect x="224" y="234" width="88" height="24" rx="12" fill="#1F3A58"/>
  <rect x="68" y="298" width="356" height="72" rx="20" fill="#0E1C2E"/>
  <rect x="92" y="322" width="96" height="24" rx="12" fill="#EC4899"/>
  <rect x="68" y="386" width="356" height="14" rx="7" fill="#8FD3FF"/>
  <rect x="484" y="132" width="440" height="552" rx="28" fill="#12253D"/>
  <rect x="516" y="176" width="160" height="160" rx="80" fill="#1E1A3A"/>
  <circle cx="596" cy="256" r="36" fill="#EC4899"/>
  <path d="M584 248L592 260L608 236" stroke="white" stroke-width="4" stroke-linecap="round" stroke-linejoin="round"/>
  <rect x="516" y="360" width="376" height="48" rx="24" fill="#0E1C2E"/>
  <rect x="540" y="376" width="200" height="16" rx="8" fill="#8FD3FF"/>
  <rect x="756" y="376" width="112" height="16" rx="8" fill="#A855F7"/>
  <rect x="516" y="424" width="376" height="48" rx="24" fill="#0E1C2E"/>
  <rect x="540" y="440" width="160" height="16" rx="8" fill="#8FD3FF"/>
  <rect x="716" y="440" width="152" height="16" rx="8" fill="#EC4899"/>
  <rect x="516" y="488" width="376" height="48" rx="24" fill="#0E1C2E"/>
  <rect x="540" y="504" width="240" height="16" rx="8" fill="#8FD3FF"/>
  <rect x="796" y="504" width="72" height="16" rx="8" fill="#22C55E"/>
  <rect x="516" y="552" width="376" height="100" rx="24" fill="#102034"/>
  <rect x="540" y="576" width="328" height="12" rx="6" fill="#1F3A58"/>
  <rect x="540" y="600" width="280" height="12" rx="6" fill="#1F3A58"/>
  <rect x="540" y="624" width="200" height="12" rx="6" fill="#1F3A58"/>
</svg>
