<svg width="960" height="720" viewBox="0 0 960 720" fill="none" xmlns="http://www.w3.org/2000/svg">
  <rect width="960" height="720" rx="36" fill="#091321"/>
  <rect x="36" y="36" width="888" height="72" rx="20" fill="#122338"/>
  <rect x="60" y="58" width="240" height="28" rx="14" fill="#38BDF8"/>
  <rect x="320" y="58" width="200" height="28" rx="14" fill="#1E2F45"/>
  <rect x="700" y="58" width="200" height="28" rx="14" fill="#22D3EE"/>
  <rect x="120" y="180" width="160" height="120" rx="24" fill="#102034"/>
  <rect x="148" y="212" width="104" height="56" rx="12" fill="#12253D"/>
  <rect x="164" y="232" width="72" height="16" rx="8" fill="#8FD3FF"/>
  <rect x="400" y="140" width="160" height="120" rx="24" fill="#102034"/>
  <rect x="428" y="172" width="104" height="56" rx="12" fill="#12253D"/>
  <rect x="444" y="192" width="72" height="16" rx="8" fill="#8FD3FF"/>
  <rect x="680" y="180" width="160" height="120" rx="24" fill="#102034"/>
  <rect x="708" y="212" width="104" height="56" rx="12" fill="#12253D"/>
  <rect x="724" y="232" width="72" height="16" rx="8" fill="#8FD3FF"/>
  <rect x="120" y="420" width="160" height="120" rx="24" fill="#102034"/>
  <rect x="148" y="452" width="104" height="56" rx="12" fill="#12253D"/>
  <rect x="164" y="472" width="72" height="16" rx="8" fill="#8FD3FF"/>
  <rect x="680" y="420" width="160" height="120" rx="24" fill="#102034"/>
  <rect x="708" y="452" width="104" height="56" rx="12" fill="#12253D"/>
  <rect x="724" y="472" width="72" height="16" rx="8" fill="#8FD3FF"/>
  <rect x="380" y="300" width="200" height="200" rx="40" fill="#0E3A5C"/>
  <rect x="420" y="340" width="120" height="120" rx="28" fill="#38BDF8"/>
  <path d="M460 380H500M480 360V400" stroke="#091321" stroke-width="8" stroke-linecap="round"/>
  <path d="M280 240 L380 360" stroke="#38BDF8" stroke-width="4" stroke-opacity="0.6" stroke-linecap="round"/>
  <path d="M560 240 L480 360" stroke="#22D3EE" stroke-width="4" stroke-opacity="0.6" stroke-linecap="round"/>
  <path d="M280 480 L400 420" stroke="#38BDF8" stroke-width="4" stroke-opacity="0.6" stroke-linecap="round"/>
  <path d="M680 480 L560 420" stroke="#22D3EE" stroke-width="4" stroke-opacity="0.6" stroke-linecap="round"/>
  <rect x="72" y="580" width="816" height="72" rx="20" fill="#102034"/>
  <rect x="96" y="604" width="200" height="24" rx="12" fill="#8FD3FF"/>
  <rect x="320" y="604" width="320" height="24" rx="12" fill="#1F3A58"/>
  <rect x="664" y="604" width="200" height="24" rx="12" fill="#22C55E"/>
</svg>
