<svg width="1280" height="920" viewBox="0 0 1280 920" fill="none" xmlns="http://www.w3.org/2000/svg">
  <rect width="1280" height="920" rx="40" fill="#08111C"/>
  <rect x="32" y="32" width="1216" height="856" rx="32" fill="#0E1828" stroke="#FFFFFF" stroke-opacity="0.08"/>
  <rect x="72" y="96" width="504" height="728" rx="32" fill="#111E31"/>
  <rect x="116" y="144" width="182" height="16" rx="8" fill="#C084FC"/>
  <rect x="116" y="178" width="132" height="12" rx="6" fill="#FFFFFF" fill-opacity="0.24"/>
  <rect x="116" y="240" width="416" height="170" rx="28" fill="#17263D"/>
  <rect x="148" y="274" width="156" height="16" rx="8" fill="#FFFFFF" fill-opacity="0.9"/>
  <rect x="148" y="308" width="226" height="12" rx="6" fill="#FFFFFF" fill-opacity="0.24"/>
  <rect x="116" y="448" width="416" height="140" rx="28" fill="#17263D"/>
  <rect x="148" y="482" width="86" height="86" rx="24" fill="#A855F7" fill-opacity="0.18"/>
  <rect x="262" y="496" width="108" height="12" rx="6" fill="#FFFFFF" fill-opacity="0.84"/>
  <rect x="262" y="528" width="142" height="12" rx="6" fill="#FFFFFF" fill-opacity="0.24"/>
  <rect x="116" y="624" width="416" height="152" rx="28" fill="#17263D"/>
  <rect x="148" y="660" width="132" height="14" rx="7" fill="#FFFFFF" fill-opacity="0.84"/>
  <rect x="148" y="698" width="236" height="12" rx="6" fill="#FFFFFF" fill-opacity="0.24"/>
  <rect x="620" y="96" width="588" height="728" rx="32" fill="#111E31"/>
  <circle cx="914" cy="348" r="180" fill="#A855F7" fill-opacity="0.12"/>
  <circle cx="914" cy="348" r="124" fill="#17263D"/>
  <circle cx="914" cy="348" r="72" fill="#22D3EE" fill-opacity="0.24"/>
  <path d="M790 348H1038" stroke="#FFFFFF" stroke-opacity="0.24" stroke-width="6" stroke-linecap="round"/>
  <path d="M914 224V472" stroke="#FFFFFF" stroke-opacity="0.24" stroke-width="6" stroke-linecap="round"/>
  <circle cx="790" cy="348" r="28" fill="#C084FC"/>
  <circle cx="1038" cy="348" r="28" fill="#F97316"/>
  <circle cx="914" cy="224" r="28" fill="#22D3EE"/>
  <circle cx="914" cy="472" r="28" fill="#34D399"/>
  <rect x="704" y="610" width="420" height="140" rx="28" fill="#17263D"/>
  <rect x="736" y="644" width="124" height="14" rx="7" fill="#FFFFFF" fill-opacity="0.84"/>
  <rect x="736" y="680" width="232" height="12" rx="6" fill="#FFFFFF" fill-opacity="0.24"/>
</svg>
