<svg width="1280" height="880" viewBox="0 0 1280 880" fill="none" xmlns="http://www.w3.org/2000/svg">
  <rect width="1280" height="880" rx="40" fill="#0A1220"/>
  <rect x="32" y="32" width="1216" height="816" rx="32" fill="#101A2B" stroke="#FFFFFF" stroke-opacity="0.08"/>
  <rect x="72" y="92" width="1136" height="120" rx="28" fill="#111E31"/>
  <rect x="116" y="132" width="202" height="16" rx="8" fill="#FFFFFF" fill-opacity="0.9"/>
  <rect x="116" y="164" width="156" height="12" rx="6" fill="#FFFFFF" fill-opacity="0.24"/>
  <rect x="72" y="252" width="548" height="256" rx="28" fill="#111E31"/>
  <rect x="112" y="292" width="84" height="84" rx="24" fill="#A855F7" fill-opacity="0.2"/>
  <rect x="224" y="308" width="142" height="14" rx="7" fill="#FFFFFF" fill-opacity="0.84"/>
  <rect x="224" y="342" width="216" height="12" rx="6" fill="#FFFFFF" fill-opacity="0.24"/>
  <rect x="112" y="408" width="468" height="60" rx="20" fill="#17263D"/>
  <rect x="660" y="252" width="548" height="256" rx="28" fill="#111E31"/>
  <rect x="700" y="292" width="84" height="84" rx="24" fill="#22D3EE" fill-opacity="0.2"/>
  <rect x="812" y="308" width="120" height="14" rx="7" fill="#FFFFFF" fill-opacity="0.84"/>
  <rect x="812" y="342" width="206" height="12" rx="6" fill="#FFFFFF" fill-opacity="0.24"/>
  <rect x="700" y="408" width="468" height="60" rx="20" fill="#17263D"/>
  <rect x="72" y="548" width="548" height="256" rx="28" fill="#111E31"/>
  <rect x="112" y="588" width="84" height="84" rx="24" fill="#F97316" fill-opacity="0.2"/>
  <rect x="224" y="604" width="170" height="14" rx="7" fill="#FFFFFF" fill-opacity="0.84"/>
  <rect x="224" y="638" width="230" height="12" rx="6" fill="#FFFFFF" fill-opacity="0.24"/>
  <rect x="112" y="704" width="468" height="60" rx="20" fill="#17263D"/>
  <rect x="660" y="548" width="548" height="256" rx="28" fill="#111E31"/>
  <rect x="700" y="588" width="84" height="84" rx="24" fill="#34D399" fill-opacity="0.2"/>
  <rect x="812" y="604" width="132" height="14" rx="7" fill="#FFFFFF" fill-opacity="0.84"/>
  <rect x="812" y="638" width="194" height="12" rx="6" fill="#FFFFFF" fill-opacity="0.24"/>
  <rect x="700" y="704" width="468" height="60" rx="20" fill="#17263D"/>
</svg>
