<svg width="1280" height="880" viewBox="0 0 1280 880" fill="none" xmlns="http://www.w3.org/2000/svg">
  <rect width="1280" height="880" rx="40" fill="#07101A"/>
  <rect x="24" y="24" width="1232" height="832" rx="28" fill="#0C1826" stroke="#FFFFFF" stroke-opacity="0.08"/>
  <rect x="24" y="24" width="1232" height="56" rx="28" fill="#101D2C"/>
  <circle cx="60" cy="52" r="8" fill="#F87171"/>
  <circle cx="88" cy="52" r="8" fill="#FBBF24"/>
  <circle cx="116" cy="52" r="8" fill="#34D399"/>
  <rect x="496" y="40" width="288" height="24" rx="12" fill="#FFFFFF" fill-opacity="0.07"/>
  <rect x="48" y="104" width="224" height="720" rx="24" fill="#101D2C"/>
  <rect x="76" y="146" width="92" height="12" rx="6" fill="#FFFFFF" fill-opacity="0.24"/>
  <rect x="76" y="184" width="168" height="56" rx="16" fill="#1C2A3A" stroke="#F97316" stroke-opacity="0.6"/>
  <circle cx="108" cy="212" r="10" fill="#F97316"/>
  <rect x="128" y="205" width="88" height="14" rx="7" fill="#FFFFFF" fill-opacity="0.84"/>
  <rect x="76" y="258" width="168" height="56" rx="16" fill="#FFFFFF" fill-opacity="0.04"/>
  <circle cx="108" cy="286" r="10" fill="#93C5FD" fill-opacity="0.8"/>
  <rect x="128" y="279" width="78" height="14" rx="7" fill="#FFFFFF" fill-opacity="0.42"/>
  <rect x="76" y="332" width="168" height="56" rx="16" fill="#FFFFFF" fill-opacity="0.04"/>
  <circle cx="108" cy="360" r="10" fill="#C4B5FD" fill-opacity="0.8"/>
  <rect x="128" y="353" width="88" height="14" rx="7" fill="#FFFFFF" fill-opacity="0.42"/>
  <rect x="304" y="120" width="920" height="120" rx="28" fill="#101D2C"/>
  <rect x="344" y="156" width="236" height="18" rx="9" fill="#FFFFFF" fill-opacity="0.88"/>
  <rect x="344" y="186" width="148" height="12" rx="6" fill="#F97316"/>
  <rect x="1028" y="154" width="148" height="32" rx="16" fill="#FFFFFF" fill-opacity="0.06"/>
  <rect x="304" y="272" width="920" height="316" rx="28" fill="#101D2C"/>
  <g opacity="0.9">
    <rect x="360" y="468" width="42" height="64" rx="12" fill="#FFFFFF" fill-opacity="0.12"/>
    <rect x="420" y="408" width="42" height="124" rx="12" fill="#FFFFFF" fill-opacity="0.12"/>
    <rect x="480" y="444" width="42" height="88" rx="12" fill="#FFFFFF" fill-opacity="0.12"/>
    <rect x="540" y="350" width="42" height="182" rx="12" fill="#FFFFFF" fill-opacity="0.12"/>
    <rect x="600" y="392" width="42" height="140" rx="12" fill="#FFFFFF" fill-opacity="0.12"/>
    <rect x="660" y="366" width="42" height="166" rx="12" fill="#FFFFFF" fill-opacity="0.12"/>
    <rect x="720" y="426" width="42" height="106" rx="12" fill="#FFFFFF" fill-opacity="0.12"/>
    <rect x="780" y="314" width="42" height="218" rx="12" fill="#F97316"/>
    <rect x="840" y="380" width="42" height="152" rx="12" fill="#FFFFFF" fill-opacity="0.12"/>
    <rect x="900" y="354" width="42" height="178" rx="12" fill="#FFFFFF" fill-opacity="0.12"/>
    <rect x="960" y="414" width="42" height="118" rx="12" fill="#FFFFFF" fill-opacity="0.12"/>
    <rect x="1020" y="330" width="42" height="202" rx="12" fill="#FFFFFF" fill-opacity="0.12"/>
  </g>
  <rect x="304" y="620" width="446" height="172" rx="28" fill="#101D2C"/>
  <rect x="344" y="658" width="152" height="12" rx="6" fill="#FFFFFF" fill-opacity="0.3"/>
  <rect x="344" y="688" width="180" height="28" rx="14" fill="#FFFFFF" fill-opacity="0.9"/>
  <rect x="344" y="730" width="136" height="12" rx="6" fill="#34D399"/>
  <rect x="778" y="620" width="446" height="172" rx="28" fill="#101D2C"/>
  <rect x="818" y="658" width="126" height="12" rx="6" fill="#FFFFFF" fill-opacity="0.3"/>
  <rect x="818" y="688" width="140" height="28" rx="14" fill="#FFFFFF" fill-opacity="0.9"/>
  <rect x="818" y="730" width="160" height="12" rx="6" fill="#FFFFFF" fill-opacity="0.24"/>
</svg>
