<svg width="1280" height="920" viewBox="0 0 1280 920" fill="none" xmlns="http://www.w3.org/2000/svg">
  <rect width="1280" height="920" rx="40" fill="#09111C"/>
  <rect x="32" y="32" width="1216" height="856" rx="32" fill="#0E1827" stroke="#FFFFFF" stroke-opacity="0.08"/>
  <rect x="72" y="88" width="520" height="744" rx="32" fill="#111D30"/>
  <rect x="116" y="136" width="188" height="18" rx="9" fill="#FFFFFF" fill-opacity="0.9"/>
  <rect x="116" y="170" width="118" height="12" rx="6" fill="#F97316"/>
  <rect x="116" y="236" width="432" height="170" rx="28" fill="#17253C"/>
  <rect x="148" y="270" width="130" height="18" rx="9" fill="#FFFFFF" fill-opacity="0.84"/>
  <rect x="148" y="306" width="212" height="12" rx="6" fill="#FFFFFF" fill-opacity="0.24"/>
  <rect x="148" y="344" width="168" height="12" rx="6" fill="#FFFFFF" fill-opacity="0.24"/>
  <rect x="116" y="446" width="432" height="146" rx="28" fill="#17253C"/>
  <rect x="148" y="480" width="72" height="72" rx="18" fill="#F97316" fill-opacity="0.18"/>
  <rect x="248" y="494" width="108" height="14" rx="7" fill="#FFFFFF" fill-opacity="0.86"/>
  <rect x="248" y="526" width="190" height="12" rx="6" fill="#FFFFFF" fill-opacity="0.24"/>
  <rect x="116" y="632" width="432" height="156" rx="28" fill="#17253C"/>
  <rect x="148" y="668" width="114" height="14" rx="7" fill="#FFFFFF" fill-opacity="0.86"/>
  <rect x="148" y="706" width="320" height="12" rx="6" fill="#FFFFFF" fill-opacity="0.24"/>
  <rect x="628" y="88" width="580" height="356" rx="32" fill="#111D30"/>
  <rect x="672" y="132" width="196" height="18" rx="9" fill="#FFFFFF"/>
  <rect x="672" y="166" width="136" height="12" rx="6" fill="#FFFFFF" fill-opacity="0.24"/>
  <path d="M708 366C762 292 842 246 930 230C1008 216 1086 230 1160 272" stroke="#F97316" stroke-width="12" stroke-linecap="round"/>
  <circle cx="824" cy="260" r="18" fill="#F97316"/>
  <circle cx="960" cy="230" r="18" fill="#A855F7"/>
  <circle cx="1096" cy="254" r="18" fill="#38BDF8"/>
  <rect x="628" y="476" width="276" height="312" rx="28" fill="#111D30"/>
  <rect x="660" y="514" width="110" height="14" rx="7" fill="#FFFFFF" fill-opacity="0.84"/>
  <rect x="660" y="552" width="212" height="112" rx="20" fill="#17253C"/>
  <rect x="692" y="586" width="64" height="64" rx="16" fill="#F97316" fill-opacity="0.2"/>
  <rect x="936" y="476" width="272" height="312" rx="28" fill="#111D30"/>
  <rect x="968" y="514" width="132" height="14" rx="7" fill="#FFFFFF" fill-opacity="0.84"/>
  <rect x="968" y="552" width="176" height="112" rx="20" fill="#17253C"/>
  <rect x="1012" y="584" width="88" height="48" rx="24" fill="#A855F7" fill-opacity="0.22"/>
</svg>
