<svg width="1200" height="900" viewBox="0 0 1200 900" fill="none" xmlns="http://www.w3.org/2000/svg">
  <rect width="1200" height="900" rx="40" fill="#0A1019"/>
  <rect x="28" y="28" width="1144" height="844" rx="32" fill="#101A2A" stroke="#FFFFFF" stroke-opacity="0.08"/>
  <rect x="96" y="88" width="1008" height="104" rx="28" fill="#111E30"/>
  <rect x="140" y="128" width="248" height="16" rx="8" fill="#FFFFFF" fill-opacity="0.88"/>
  <rect x="140" y="158" width="172" height="12" rx="6" fill="#FFFFFF" fill-opacity="0.24"/>
  <rect x="96" y="236" width="1008" height="568" rx="32" fill="#111E30"/>
  <circle cx="248" cy="520" r="116" fill="#17253C"/>
  <rect x="206" y="472" width="84" height="84" rx="24" fill="#FFFFFF" fill-opacity="0.08"/>
  <path d="M230 520H266" stroke="#FFFFFF" stroke-width="8" stroke-linecap="round"/>
  <path d="M252 498L274 520L252 542" stroke="#FFFFFF" stroke-width="8" stroke-linecap="round" stroke-linejoin="round"/>
  <circle cx="600" cy="520" r="140" fill="#F97316" fill-opacity="0.12" stroke="#F97316" stroke-opacity="0.35" stroke-width="4"/>
  <circle cx="600" cy="520" r="96" fill="#17253C"/>
  <path d="M600 454L646 480V560L600 586L554 560V480L600 454Z" fill="#F97316" fill-opacity="0.26" stroke="#FDBA74" stroke-width="4"/>
  <circle cx="952" cy="520" r="116" fill="#17253C"/>
  <rect x="910" y="472" width="84" height="84" rx="24" fill="#FFFFFF" fill-opacity="0.08"/>
  <path d="M934 552C934 530 952 512 974 512C996 512 1014 530 1014 552" stroke="#FFFFFF" stroke-width="8" stroke-linecap="round"/>
  <circle cx="974" cy="492" r="18" fill="#FFFFFF"/>
  <path d="M364 514H470" stroke="#F97316" stroke-width="8" stroke-linecap="round"/>
  <path d="M730 514H838" stroke="#A855F7" stroke-width="8" stroke-linecap="round"/>
  <rect x="388" y="472" width="58" height="22" rx="11" fill="#F97316"/>
  <rect x="752" y="472" width="58" height="22" rx="11" fill="#A855F7"/>
  <rect x="144" y="698" width="208" height="18" rx="9" fill="#FFFFFF" fill-opacity="0.84"/>
  <rect x="496" y="698" width="208" height="18" rx="9" fill="#FFFFFF" fill-opacity="0.84"/>
  <rect x="848" y="698" width="208" height="18" rx="9" fill="#FFFFFF" fill-opacity="0.84"/>
  <rect x="176" y="736" width="144" height="12" rx="6" fill="#FFFFFF" fill-opacity="0.24"/>
  <rect x="528" y="736" width="144" height="12" rx="6" fill="#FFFFFF" fill-opacity="0.24"/>
  <rect x="880" y="736" width="144" height="12" rx="6" fill="#FFFFFF" fill-opacity="0.24"/>
</svg>
